<?xml version="1.0" encoding="utf-8"?>
<!-- Generator: Adobe Illustrator 18.0.0, SVG Export Plug-In . SVG Version: 6.00 Build 0)  -->
<!DOCTYPE svg PUBLIC "-//W3C//DTD SVG 1.1//EN" "http://www.w3.org/Graphics/SVG/1.1/DTD/svg11.dtd">
<svg version="1.1" id="Layer_1" xmlns="http://www.w3.org/2000/svg" xmlns:xlink="http://www.w3.org/1999/xlink" x="0px" y="0px"
	 viewBox="0 0 1000 1000" enable-background="new 0 0 1000 1000" xml:space="preserve">
<g>
	<g>
		<path fill="#EBA06D" d="M992,1000H8c-4.4,0-8-3.6-8-8V8c0-4.4,3.6-8,8-8H992c4.4,0,8,3.6,8,8V992C1000,996.4,996.4,1000,992,1000z
			 M87.6,920.3h824.7c4.4,0,8-3.6,8-8V87.6c0-4.4-3.6-8-8-8H87.6c-4.4,0-8,3.6-8,8v824.7C79.7,916.8,83.2,920.3,87.6,920.3z"/>
	</g>
	<circle fill="#EBA06D" cx="785.7" cy="786.4" r="50.3"/>
	<path fill="#EBA06D" d="M745.7,286.1L697.5,238c-3-3-8-3.1-11.1-0.2c-19.5,18.5-39.1,29.6-97.4,29.6v-0.1H403c-4.4,0-8,3.6-8,8
		v185.6c0,4.4-3.6,8-8,8h-81.3c-4.4,0-8,3.6-8,8v72.4c0,4.4,3.6,8,8,8H387c4.4,0,8,3.6,8,8v159.7c0,4.4,3.6,8,8,8h72.4
		c4.4,0,8-3.6,8-8V565.1c0-4.4,3.6-8,8-8h135.8c4.4,0,8-3.6,8-8v-72.4c0-4.4-3.6-8-8-8H491.3c-4.4,0-8-3.6-8-8v-97.1
		c0-4.4,3.6-8,8-8H609c61.3,0,96.9-21.6,136.4-58.1C748.8,294.5,748.9,289.3,745.7,286.1z"/>
</g>
</svg>
